<?xml version="1.0" standalone="no"?>
<!DOCTYPE svg PUBLIC "-//W3C//DTD SVG 20010904//EN"
 "http://www.w3.org/TR/2001/REC-SVG-20010904/DTD/svg10.dtd">
<svg version="1.0" xmlns="http://www.w3.org/2000/svg"
 width="512.000000pt" height="512.000000pt" viewBox="0 0 512.000000 512.000000"
 preserveAspectRatio="xMidYMid meet">

<g transform="translate(0.000000,512.000000) scale(0.100000,-0.100000)"
fill="#000000" stroke="none">
<path d="M3215 4705 c-128 -28 -657 -253 -1045 -446 -950 -471 -1690 -997
-2139 -1523 -33 -39 -33 -39 -26 -115 26 -296 116 -786 201 -1093 94 -341 204
-603 356 -848 80 -130 141 -191 237 -238 l75 -37 1242 -3 1242 -2 21 26 c34
43 26 86 -20 109 -24 13 -194 15 -1227 15 -1338 0 -1250 -5 -1335 71 -74 64
-185 251 -280 470 -68 156 -136 358 -187 554 -40 156 -110 489 -110 525 l0 20
2196 0 2196 0 -6 -27 c-4 -16 -62 -347 -131 -736 -83 -472 -131 -720 -144
-745 -25 -49 -66 -86 -121 -111 -41 -19 -65 -21 -293 -21 -198 0 -254 -3 -276
-15 -46 -23 -54 -66 -20 -109 l21 -27 287 3 287 3 66 33 c84 41 168 129 196
205 12 31 155 814 332 1818 242 1371 311 1776 307 1817 -12 117 -97 232 -202
271 -55 21 -164 34 -1174 141 -306 32 -431 36 -526 15z m933 -210 c758 -81
741 -78 790 -149 13 -19 25 -49 28 -68 4 -22 -53 -371 -162 -986 l-168 -952
-2222 0 -2222 0 -7 38 c-3 21 -12 90 -19 153 l-13 114 37 45 c64 77 319 320
445 425 543 453 1280 888 2135 1257 237 103 402 168 465 184 91 23 214 14 913
-61z"/>
<path d="M3225 4396 c-38 -14 -151 -58 -250 -99 -580 -241 -1165 -543 -1614
-835 -146 -95 -746 -517 -784 -551 -95 -86 -99 -244 -10 -336 75 -77 52 -75
660 -75 530 0 543 0 563 20 30 30 27 83 -6 109 -25 20 -40 21 -219 21 l-193 0
10 46 c6 26 8 126 6 223 -5 192 -11 220 -67 283 l-31 36 147 95 c513 327 1042
599 1678 859 139 57 183 71 240 75 47 3 268 -17 679 -61 335 -36 610 -67 612
-68 1 -2 -57 -337 -129 -746 l-131 -742 -1157 0 -1158 0 -25 -22 c-36 -33 -39
-75 -6 -108 20 -20 33 -20 1226 -20 797 0 1212 3 1224 10 11 6 24 27 30 48 19
69 291 1635 288 1660 -6 53 -29 59 -378 97 -1141 122 -1093 119 -1205 81z
m-2025 -1286 c10 -5 23 -24 29 -41 14 -41 15 -328 1 -365 -20 -52 -27 -53
-283 -54 l-239 0 -29 29 c-34 34 -38 78 -11 110 9 11 116 90 237 175 222 156
250 170 295 146z"/>
<path d="M2605 1988 c-26 -20 -27 -24 -23 -93 12 -176 145 -333 323 -380 81
-21 743 -22 820 -1 164 43 281 163 320 327 21 90 19 116 -10 144 l-24 25 -689
0 -689 0 -28 -22z m1285 -138 c0 -25 -42 -89 -83 -127 -77 -71 -100 -74 -514
-71 l-358 3 -50 27 c-27 14 -62 39 -76 55 -32 34 -69 93 -69 111 0 9 122 12
575 12 391 0 575 -3 575 -10z"/>
</g>
</svg>
