<?xml version="1.0" standalone="no"?>
<!DOCTYPE svg PUBLIC "-//W3C//DTD SVG 20010904//EN"
 "http://www.w3.org/TR/2001/REC-SVG-20010904/DTD/svg10.dtd">
<svg version="1.0" xmlns="http://www.w3.org/2000/svg"
 width="512.000000pt" height="512.000000pt" viewBox="0 0 512.000000 512.000000"
 preserveAspectRatio="xMidYMid meet">

<g transform="translate(0.000000,512.000000) scale(0.100000,-0.100000)"
fill="#000000" stroke="none">
<path d="M1502 4037 c-23 -25 -29 -75 -12 -107 18 -33 66 -40 286 -40 l214 0
0 -165 0 -165 -234 0 c-128 0 -248 -3 -266 -6 -26 -6 -52 -32 -147 -150 l-115
-144 -62 0 c-165 0 -301 -85 -370 -230 -29 -62 -31 -72 -34 -212 l-4 -148
-124 0 -124 0 0 315 c0 352 -3 374 -59 393 -38 13 -72 3 -95 -30 -14 -20 -16
-101 -16 -771 l0 -748 25 -24 c33 -34 83 -34 116 1 l24 26 3 334 3 334 124 0
125 0 0 -298 c0 -338 6 -381 67 -470 45 -65 106 -114 181 -143 52 -21 78 -23
297 -27 l240 -4 135 -131 c74 -73 189 -185 256 -250 l121 -117 846 0 c465 0
853 3 862 6 38 15 45 55 45 259 l0 195 105 0 105 0 0 -139 c0 -133 1 -141 24
-168 l24 -28 227 0 227 0 34 39 c49 57 128 216 163 331 63 207 85 367 84 615
0 221 -19 354 -74 526 -55 173 -156 360 -206 383 -15 7 -104 11 -234 11 l-211
0 -29 -29 -29 -29 0 -141 0 -141 -105 0 -105 0 0 141 0 141 -29 29 -29 29
-135 0 -134 0 -53 123 c-125 286 -145 323 -180 336 -22 7 -138 11 -351 11
l-319 0 0 164 0 165 236 3 236 3 25 29 c20 24 24 36 19 65 -12 76 42 71 -810
71 l-763 0 -21 -23z m908 -312 l0 -165 -125 0 -125 0 0 165 0 165 125 0 125 0
0 -165z m855 -559 c54 -123 101 -217 114 -228 20 -15 41 -18 142 -18 l119 0 0
-141 0 -141 29 -29 29 -29 217 0 217 0 29 29 29 29 0 141 0 141 129 0 129 0
50 -102 c54 -112 91 -218 119 -349 28 -128 25 -470 -4 -636 -27 -146 -80 -313
-131 -408 l-37 -70 -125 0 -125 0 -5 148 c-7 201 14 187 -277 187 l-224 0 -24
-25 c-25 -24 -25 -25 -25 -230 l0 -205 -761 0 -761 0 -245 243 c-134 133 -247
244 -250 247 -2 3 -125 7 -271 10 -262 5 -268 5 -312 30 -24 14 -58 45 -75 68
l-30 44 -3 511 c-3 576 -3 576 62 642 51 50 98 65 209 65 47 0 92 3 101 6 9 3
66 69 127 145 l111 139 815 -2 816 -3 92 -209z"/>
</g>
</svg>
