<?xml version="1.0" standalone="no"?>
<!DOCTYPE svg PUBLIC "-//W3C//DTD SVG 20010904//EN"
 "http://www.w3.org/TR/2001/REC-SVG-20010904/DTD/svg10.dtd">
<svg version="1.0" xmlns="http://www.w3.org/2000/svg"
 width="512.000000pt" height="512.000000pt" viewBox="0 0 512.000000 512.000000"
 preserveAspectRatio="xMidYMid meet">

<g transform="translate(0.000000,512.000000) scale(0.100000,-0.100000)"
fill="#000000" stroke="none">
<path d="M295 5101 c-77 -20 -161 -85 -195 -151 -10 -19 -35 -91 -56 -160 -41
-136 -49 -225 -25 -293 19 -57 82 -129 137 -158 27 -15 344 -113 705 -219
l656 -193 269 -223 c148 -123 272 -234 277 -247 4 -12 140 -713 302 -1556 274
-1428 297 -1540 330 -1609 71 -150 222 -259 393 -284 136 -20 178 -7 667 209
l430 190 33 -28 c52 -46 92 -62 168 -67 71 -4 74 -4 275 78 305 122 338 139
387 195 52 59 77 135 69 209 -4 36 -124 342 -405 1026 l-399 975 48 60 c63 77
83 136 77 229 -6 88 -29 134 -100 203 -126 122 -927 806 -968 826 -36 17 -62
22 -130 22 -118 0 -163 -26 -283 -163 -89 -103 -89 -103 -111 -84 -169 150
-931 764 -971 783 -77 35 -1439 431 -1495 434 -30 2 -68 1 -85 -4z m782 -366
c384 -113 707 -209 718 -214 20 -8 61 -41 408 -324 l158 -129 -70 -76 c-39
-42 -112 -121 -163 -175 l-93 -99 -205 172 c-113 94 -217 178 -232 186 -15 8
-324 102 -687 209 -363 106 -671 201 -685 210 -14 9 -32 36 -41 60 -17 42 -16
44 21 175 20 72 46 143 57 157 21 26 69 52 99 53 9 0 331 -92 715 -205z m2246
-792 c12 -11 223 -194 469 -407 247 -212 455 -398 464 -411 12 -18 15 -39 12
-75 -4 -42 -13 -59 -55 -108 -67 -78 -83 -103 -83 -129 0 -12 185 -474 411
-1025 444 -1084 430 -1042 376 -1095 -12 -13 -128 -66 -257 -119 -201 -82
-240 -95 -275 -91 -28 4 -47 14 -63 34 -59 73 -70 83 -97 83 -15 0 -236 -92
-490 -204 -254 -112 -487 -209 -518 -216 -145 -30 -310 56 -372 193 -17 37
-106 485 -320 1597 -163 850 -300 1559 -306 1575 -5 17 -19 37 -31 46 -21 16
-19 19 142 193 142 151 166 174 180 162 8 -7 87 -72 174 -145 212 -176 197
-176 358 9 65 74 128 140 141 147 31 19 112 11 140 -14z"/>
<path d="M2409 3491 c-34 -34 -34 -42 -14 -125 33 -127 45 -156 77 -172 56
-29 118 8 118 71 0 62 -42 208 -66 232 -33 33 -78 30 -115 -6z"/>
<path d="M2545 3045 c-17 -16 -25 -35 -25 -57 1 -18 29 -152 64 -297 69 -285
75 -300 139 -301 31 0 87 47 87 73 0 8 -29 137 -64 287 -50 212 -69 277 -87
296 -31 33 -81 32 -114 -1z"/>
<path d="M3202 2419 c-57 -11 -129 -31 -160 -46 -115 -54 -203 -174 -223 -304
-9 -59 -1 -122 96 -769 116 -769 113 -755 188 -807 33 -23 51 -28 101 -28 56
0 81 9 316 114 140 62 332 147 425 188 94 40 178 83 188 95 9 11 17 33 17 48
0 38 -416 1275 -446 1326 -53 91 -165 170 -272 193 -70 15 -106 13 -230 -10z
m257 -179 c42 -21 82 -62 104 -105 29 -60 397 -1169 390 -1176 -12 -10 -196
-90 -199 -86 -2 2 -75 215 -163 474 -88 259 -173 498 -190 531 -38 75 -118
162 -227 248 -46 36 -84 69 -84 74 0 13 76 39 160 55 88 16 159 11 209 -15z
m-374 -262 c85 -67 137 -123 166 -179 22 -44 339 -972 339 -992 -1 -19 -380
-181 -393 -168 -14 14 -219 1359 -212 1389 4 17 9 21 18 15 7 -6 44 -35 82
-65z"/>
<path d="M525 3736 c-105 -46 -401 -516 -491 -781 -23 -68 -27 -97 -28 -195 0
-96 4 -126 23 -180 62 -175 195 -311 364 -370 87 -31 267 -39 357 -15 209 54
373 217 426 425 24 94 16 241 -20 345 -81 241 -375 714 -476 765 -45 23 -111
25 -155 6z m144 -242 c144 -194 287 -453 331 -602 63 -209 -26 -414 -218 -505
-64 -30 -73 -32 -187 -32 -116 0 -123 1 -186 32 -156 77 -252 242 -236 408 8
81 39 166 111 310 81 158 290 475 314 475 4 0 36 -39 71 -86z"/>
</g>
</svg>
