<svg version="1.0" xmlns="http://www.w3.org/2000/svg"
 width="512.000000pt" height="512.000000pt" viewBox="0 0 512.000000 512.000000"
 preserveAspectRatio="xMidYMid meet">

<g transform="translate(0.000000,512.000000) scale(0.100000,-0.100000)"
fill="#000000" stroke="none">
<path d="M494 4632 c-280 -72 -474 -304 -491 -587 -11 -188 54 -355 191 -490
82 -81 188 -146 264 -161 l32 -6 0 -827 0 -827 -47 -13 c-139 -37 -301 -176
-372 -321 -54 -111 -75 -208 -68 -325 16 -263 190 -489 441 -572 69 -23 98
-27 201 -27 106 0 130 3 200 28 207 71 357 228 419 435 93 312 -91 668 -401
776 l-68 24 -3 311 -2 310 815 0 815 0 -2 -311 -3 -311 -62 -23 c-90 -32 -166
-81 -237 -151 -119 -120 -176 -252 -184 -424 -5 -131 12 -212 70 -324 132
-254 421 -390 703 -331 230 48 431 241 490 470 21 80 21 235 0 316 -54 207
-233 396 -430 454 l-40 12 -3 312 -2 311 619 0 c669 0 703 2 831 54 204 83
367 267 430 486 18 62 23 112 27 282 l6 206 30 6 c75 15 182 80 263 161 93 92
154 201 179 320 86 413 -247 799 -666 772 -387 -25 -669 -384 -595 -758 49
-242 222 -428 469 -503 15 -5 17 -21 17 -148 0 -79 -5 -171 -10 -206 -18 -126
-97 -246 -201 -309 -105 -63 -109 -63 -786 -63 l-613 0 2 361 3 361 52 18
c205 72 365 243 418 449 21 81 21 236 0 316 -44 173 -177 336 -335 414 -193
94 -387 94 -579 -1 -162 -80 -295 -248 -337 -424 -23 -101 -15 -256 19 -352
65 -186 208 -331 390 -397 l62 -23 3 -361 2 -361 -815 0 -815 0 2 360 3 361
68 24 c207 72 368 262 413 484 51 258 -70 528 -301 669 -132 80 -334 111 -481
74z m294 -317 c74 -33 133 -93 170 -173 22 -46 26 -72 27 -137 0 -68 -4 -89
-29 -140 -128 -260 -491 -265 -618 -7 -30 60 -33 75 -33 152 1 65 6 96 22 132
42 91 140 174 237 199 59 15 158 4 224 -26z m1936 -4 c210 -103 254 -385 84
-547 -67 -65 -119 -87 -218 -92 -116 -5 -183 20 -261 97 -76 77 -103 146 -97
256 4 62 11 92 32 133 88 172 287 239 460 153z m1889 10 c65 -28 141 -102 174
-170 23 -47 27 -70 28 -141 0 -77 -3 -92 -33 -152 -103 -211 -378 -256 -548
-91 -68 66 -98 139 -98 238 0 94 27 165 90 234 92 102 258 138 387 82z m-3820
-2901 c65 -31 128 -94 163 -165 25 -51 29 -72 29 -140 0 -71 -4 -89 -33 -147
-38 -77 -92 -130 -171 -167 -47 -22 -69 -26 -141 -26 -105 1 -174 31 -244 105
-68 73 -89 127 -90 230 -1 77 2 92 32 152 83 169 284 238 455 158z m1935 -4
c248 -127 244 -485 -6 -608 -59 -29 -76 -33 -152 -33 -71 0 -94 4 -140 26 -69
33 -131 93 -166 161 -39 75 -45 190 -14 270 70 187 300 275 478 184z"/>
</g>
</svg>
