<?xml version="1.0" standalone="no"?>
<!DOCTYPE svg PUBLIC "-//W3C//DTD SVG 20010904//EN"
 "http://www.w3.org/TR/2001/REC-SVG-20010904/DTD/svg10.dtd">
<svg version="1.0" xmlns="http://www.w3.org/2000/svg"
 width="512.000000pt" height="512.000000pt" viewBox="0 0 512.000000 512.000000"
 preserveAspectRatio="xMidYMid meet">

<g transform="translate(0.000000,512.000000) scale(0.100000,-0.100000)"
fill="#000000" stroke="none">
<path d="M2285 4748 c-116 -11 -312 -51 -442 -89 -527 -153 -990 -474 -1327
-919 -374 -495 -561 -1139 -506 -1750 40 -438 180 -843 415 -1195 119 -180
298 -390 356 -421 36 -18 83 -18 117 0 15 8 120 108 235 223 223 224 236 243
217 314 -17 64 -77 97 -147 84 -31 -5 -65 -35 -198 -166 -89 -87 -164 -159
-166 -159 -9 0 -143 170 -196 250 -214 317 -353 710 -379 1068 l-7 92 229 0
c212 0 231 2 262 20 32 20 62 71 62 107 0 33 -36 86 -71 105 -30 16 -60 18
-258 18 l-224 0 7 92 c20 269 110 572 247 837 92 178 157 274 326 481 2 2 74
-66 161 -152 86 -86 167 -161 179 -167 89 -45 195 37 177 137 -6 31 -35 66
-169 202 l-162 165 61 51 c342 284 789 476 1211 519 33 3 77 8 98 11 l37 6 0
-204 c0 -250 3 -271 47 -314 29 -29 40 -34 83 -34 43 0 54 5 83 34 44 43 47
64 47 314 l0 204 38 -6 c20 -3 64 -8 97 -11 422 -43 869 -235 1211 -519 l61
-51 -162 -165 c-134 -136 -163 -171 -169 -202 -18 -100 88 -182 177 -137 12 6
93 81 179 167 87 86 159 154 161 152 169 -207 234 -303 326 -481 137 -265 227
-568 247 -837 l7 -92 -224 0 c-198 0 -228 -2 -258 -18 -35 -19 -71 -72 -71
-105 0 -36 30 -87 62 -107 31 -18 50 -20 262 -20 l229 0 -7 -92 c-26 -358
-165 -751 -379 -1068 -53 -80 -187 -250 -196 -250 -2 0 -77 72 -166 159 -131
130 -167 161 -197 166 -74 14 -129 -17 -148 -85 -20 -69 -5 -90 222 -316 117
-117 223 -217 235 -223 30 -15 79 -14 112 3 58 31 237 241 356 421 314 471
466 1067 415 1620 -54 575 -278 1088 -662 1512 -418 462 -1013 762 -1632 822
-128 13 -402 12 -531 -1z"/>
<path d="M3068 3652 c-65 -8 -82 -40 -273 -522 l-181 -455 -79 -6 c-232 -19
-402 -176 -436 -402 -14 -93 5 -199 50 -292 41 -83 84 -128 163 -170 88 -47
155 -65 249 -65 233 0 422 162 460 396 22 135 -29 300 -126 403 l-46 49 186
465 c178 446 186 467 176 505 -18 64 -76 103 -143 94z m-389 -1261 c34 -18 48
-33 69 -79 93 -203 -93 -392 -294 -298 -80 37 -122 129 -104 227 15 79 51 125
125 161 52 25 143 20 204 -11z"/>
</g>
</svg>
